<svg width="683" height="683" viewBox="0 0 683 683" fill="none" xmlns="http://www.w3.org/2000/svg">
<g clip-path="url(#clip0_205_8)">
<path d="M70.1332 104C56.9332 106.267 46.2666 117.467 43.9999 131.333C42.3999 141.467 42.2666 546.533 43.8666 553.6L45.0666 558.667H25.7332C7.19991 558.667 6.39991 558.8 3.33324 562C-1.46676 566.667 -0.533423 573.867 5.19991 578.267C8.26658 580.667 587.2 580.8 595.2 578.4C602.4 576.267 613.6 565.2 615.6 558C618.8 546.8 682.8 255.2 682.667 252C682.533 247.333 677.867 237.467 673.6 232.8C671.6 230.667 667.067 227.6 663.333 225.867C657.333 222.933 654.933 222.667 637.067 222.667H617.333V198.267C617.333 184.933 616.667 171.867 616 169.2C614.133 162.4 605.867 153.467 598.133 149.867L591.333 146.667H462.933C351.867 146.667 334 146.4 330.667 144.667C326.667 142.533 326 141.467 324.667 132C322.8 120.4 315.333 110.533 304.667 105.733C299.733 103.467 292.133 103.333 188 103.2C126.8 103.067 73.7332 103.467 70.1332 104ZM299.6 128.267C301.2 130 303.067 134.667 303.867 139.333C305.867 150 311.2 158.267 319.2 163.333L325.733 167.333L457.733 168L589.6 168.667L592.8 172.4C595.867 176 596 176.8 596 199.467V222.667H365.067H134L127.2 225.867C119.6 229.467 112.533 237.067 110.667 244C109.867 246.533 99.7332 292.133 87.9999 345.333C76.1332 398.533 66.3999 442.533 66.1332 443.333C65.7332 444 65.4666 374.267 65.4666 288.267L65.3332 131.867L68.6666 128.667L71.8666 125.333H184.4H296.933L299.6 128.267ZM656.8 247.067C658.8 248.8 660.267 251.467 660.267 253.467C660.267 258.133 596.133 548 594.133 552C593.333 553.867 591.067 556 589.333 556.933C586.667 558.267 532.533 558.667 331.333 558.533C191.333 558.4 75.1999 558 73.4666 557.467C71.7332 557.067 69.0666 554.933 67.5999 553.067L64.9332 549.467L97.9999 400.4C116.133 318.4 131.6 250.267 132.267 248.933C132.933 247.6 134.8 246 136.4 245.333C138 244.667 251.6 244.133 396.267 244.133L653.2 244L656.8 247.067Z" fill="white"/>
<path d="M306.667 332.133C291.733 338.133 288.267 359.333 300.8 369.2C312 378 328.4 373.733 334.133 360.4C336.8 354.267 336.4 349.2 332.933 342.667C327.867 333.067 316.133 328.4 306.667 332.133Z" fill="white"/>
<path d="M468.666 332.533C454.533 338.8 451.066 356.667 461.866 367.467C472.666 378.267 490.666 374.667 496.8 360.4C499.466 354.267 499.066 349.2 495.6 342.667C490.4 332.8 478.266 328.267 468.666 332.533Z" fill="white"/>
<path d="M368.667 420.667C352.133 424.267 339.2 430.667 329.733 440C325.333 444.133 324 446.4 324 449.733C324.133 454.933 326.267 458.133 331.067 459.867C335.467 461.6 338 460.667 343.733 455.733C367.067 435.733 410.533 435.2 435.2 454.8C439.333 458.133 443.067 460 445.6 460C450.8 460 456 454.667 456 449.333C456 440 432.667 424.8 411.733 420.667C399.333 418.267 379.6 418.267 368.667 420.667Z" fill="white"/>
</g>
<defs>
<clipPath id="clip0_205_8">
<rect width="682.667" height="682.667" fill="white"/>
</clipPath>
</defs>
</svg>
