<svg width="300" height="300" viewBox="0 0 300 300" fill="none" xmlns="http://www.w3.org/2000/svg">
<path d="M140.18 62.5332C119.93 64.8349 102.274 73.091 87.4677 87.2016C72.1018 101.913 63.0959 120.376 60.908 141.742C60.2975 147.546 60.2975 147.597 58.7202 148.397C54.09 150.749 47.5773 156.903 43.7613 162.508L41.2172 166.26L36.4344 166.31C32.5166 166.36 31.2446 166.561 29.1585 167.561C25.953 169.113 22.9002 172.115 21.272 175.317C20 177.769 20 178.019 20 190.078C20 201.787 20.0509 202.437 21.1703 204.589C22.9511 208.192 24.9863 210.293 28.4971 212.145C31.4481 213.696 32.0587 213.846 36.4344 213.846L41.2172 213.896L43.9648 217.899C49.3581 225.905 58.2114 232.61 67.2681 235.562C82.9902 240.666 94.184 237.714 99.3229 227.106L100.9 223.853V190.078V156.303L99.5264 153.451C95.9139 145.895 89.6556 142.042 80.9041 142.042H77.1389L77.4951 139.39C78.3601 133.036 81.4129 123.729 84.8219 117.074C91.2329 104.615 104.004 92.1052 116.877 85.7505C122.117 83.1986 129.444 80.6467 135.245 79.4458C142.928 77.7946 157.072 77.7946 164.755 79.4458C170.556 80.6467 177.883 83.1986 183.123 85.7505C195.945 92.1052 208.767 104.615 215.178 117.074C218.536 123.679 221.64 133.036 222.505 139.34L222.861 141.942L218.078 142.142C214.11 142.293 212.787 142.593 210.039 143.844C205.765 145.845 202.712 148.797 200.728 152.951L199.1 156.303V190.078V223.853L200.677 227.106C202.661 231.259 205.816 234.361 210.039 236.313C213.143 237.764 213.703 237.864 218.943 237.814C233.851 237.714 247.64 230.308 256.035 217.899L258.783 213.896L263.566 213.846C267.941 213.846 268.552 213.696 271.503 212.145C275.065 210.243 276.591 208.692 278.626 204.889L280 202.337V190.078V177.819L278.27 174.667C276.337 171.214 274.2 169.163 270.587 167.461C268.755 166.611 267.331 166.36 263.566 166.31L258.783 166.26L256.035 162.257C252.932 157.654 247.386 152.2 242.755 149.298L239.652 147.346L239.295 143.544C236.904 115.923 222.352 91.7049 198.896 76.2934C182.411 65.4854 160.074 60.2315 140.18 62.5332ZM83.9569 158.905C84.8219 159.656 84.8728 161.307 84.8728 189.978C84.8728 224.103 85.1272 222.102 81.0568 222.102C77.9022 222.102 71.4912 220.351 67.9295 218.499C63.8591 216.398 58.1096 210.744 55.9726 206.741C50.9863 197.434 50.9863 182.723 55.9726 173.416C58.1096 169.413 63.8591 163.759 67.9295 161.657C73.8317 158.605 82.0235 157.154 83.9569 158.905ZM224.998 159.055C230.595 160.456 234.665 162.758 238.787 166.811C245.147 173.065 247.691 179.72 247.691 190.078C247.691 200.436 245.147 207.091 238.787 213.345C234.665 217.399 230.595 219.7 224.998 221.101C220.164 222.302 217.315 222.402 216.043 221.251C215.178 220.501 215.127 218.85 215.127 190.178C215.127 162.708 215.229 159.806 215.992 158.955C217.061 157.754 220.012 157.804 224.998 159.055Z" fill="white"/>
</svg>
