<svg width="300" height="300" viewBox="0 0 300 300" fill="none" xmlns="http://www.w3.org/2000/svg">
<path d="M140.838 20.1249C139.871 20.2267 136.868 20.5828 134.221 20.8372C117.424 22.6687 98.8449 28.9773 83.8293 37.9315C64.7416 49.3278 49.2169 64.845 37.8152 83.9235C28.9076 98.7793 23.0031 116.077 20.6108 134.291C19.7964 140.549 19.7964 159.576 20.6108 165.834C24.7847 197.53 38.7314 224.342 62.3493 246.269C75.3798 258.429 91.6171 267.891 109.28 273.691C123.226 278.321 134.272 280 150 280C161.605 280 166.746 279.542 176.977 277.456C212.048 270.283 243.352 247.795 262.185 216.201C271.092 201.346 276.997 184.048 279.389 165.834C280.204 159.576 280.204 140.549 279.389 134.291C276.997 116.077 271.092 98.7793 262.185 83.9235C250.783 64.845 235.258 49.3278 216.171 37.9315C201.46 29.13 183.9 23.1266 166.288 20.8372C161.809 20.2267 143.994 19.7688 140.838 20.1249ZM160.435 35.5912C190.11 38.3385 218.767 53.2452 237.651 75.7834C274.045 119.181 274.045 180.944 237.651 224.342C218.767 246.88 190.11 261.786 160.435 264.534C129.996 267.332 99.5576 257.665 75.6852 237.671C50.3367 216.456 34.9648 183.386 34.9648 150.062C34.9648 115.67 51.2529 81.8376 78.0775 60.4696C101.441 41.849 131.065 32.8948 160.435 35.5912Z" fill="white"/>
<path d="M106.226 89.876C105.055 90.3339 103.171 92.1654 102.357 93.6917C101.288 95.7267 101.39 106.36 102.459 108.649C104.902 113.737 112.69 113.89 115.642 108.853C116.507 107.326 116.66 106.207 116.66 100.967C116.66 94.0987 116.049 92.2672 113.199 90.5374C111.621 89.5707 108.007 89.2146 106.226 89.876Z" fill="white"/>
<path d="M186.801 90.4865C183.951 92.2672 183.34 94.0987 183.34 100.967C183.34 106.207 183.493 107.326 184.358 108.853C186.496 112.465 191.331 113.686 194.945 111.498C197.745 109.718 198.356 107.835 198.356 100.967C198.356 94.6075 197.999 93.2847 195.607 91.097C193.724 89.3163 189.143 89.0111 186.801 90.4865Z" fill="white"/>
<path d="M85.3562 143.347C84.3891 143.805 83.0657 145.026 82.404 145.992C81.2333 147.671 81.1824 148.078 81.4369 154.132C81.5896 157.643 82.0986 162.222 82.5567 164.308C87.7994 188.118 105.004 207.4 128.113 215.336C135.493 217.88 139.82 218.491 150 218.491C157.177 218.491 160.435 218.287 163.743 217.575C187.921 212.386 207.314 195.24 215.305 171.939C217.341 165.936 218.258 161.001 218.563 154.132C218.817 148.078 218.767 147.671 217.596 145.992C215 142.177 220.243 142.431 150 142.431C91.1589 142.431 87.0359 142.482 85.3562 143.347ZM202.682 160.085C202.173 163.697 199.526 171.278 197.49 174.992C190.262 188.372 178.148 197.988 163.387 202.058C159.976 203.024 158.093 203.177 150 203.177C141.907 203.177 140.023 203.024 136.613 202.058C121.852 197.988 109.738 188.372 102.51 174.992C100.474 171.278 97.8268 163.697 97.3178 160.085L96.9615 157.694H150H203.038L202.682 160.085Z" fill="white"/>
</svg>
