<svg width="120" height="120" viewBox="0 0 120 120" fill="none" xmlns="http://www.w3.org/2000/svg">
<path d="M21 59.2V108L23.8 106.533C25.2667 105.733 33.4 100.533 41.9333 94.9333C50.4667 89.4667 58.0667 84.6667 59 84.4C59.9333 84 69.1333 89.2 79.5333 95.7333C89.8 102.4 98.6 107.867 99 107.867C99.4 107.867 99.6667 86 99.6667 59.2V10.5333H60.3333H21V59.2ZM94.3333 57.2C94.3333 79.8667 94.0667 98.5333 93.6667 98.5333C93.4 98.5333 88.0667 95.3333 82.0667 91.4667C75.9333 87.4667 68.6 82.8 65.5333 80.8L60.0667 77.4667L45.8 86.6667C38.0667 91.7333 30.4667 96.4 29 97.2C26.3333 98.6667 26.3333 98 26.3333 57.2V15.8667H60.3333H94.3333V57.2Z" fill="white"/>
</svg>
