<?xml version="1.0" encoding="UTF-8"?>
<svg width="40px" height="40px" viewBox="0 0 40 40" version="1.1" xmlns="http://www.w3.org/2000/svg" xmlns:xlink="http://www.w3.org/1999/xlink">
    <!-- Generator: Sketch 52.6 (67491) - http://www.bohemiancoding.com/sketch -->
    <title>ic/ic_search@1x</title>
    <desc>Created with Sketch.</desc>
    <g id="ic/ic_search" stroke="none" stroke-width="1" fill="none" fill-rule="evenodd">
        <g>
            <rect id="Rectangle" x="0" y="0" width="40" height="40"></rect>
            <path d="M24.5953673,22.6950634 L30.4231344,28.4364932 L29.4129819,29.4316806 L23.6533166,23.7573437 C22.3095493,25.009758 20.4958137,25.7777778 18.5,25.7777778 C14.3578644,25.7777778 11,22.4696595 11,18.3888889 C11,14.3081182 14.3578644,11 18.5,11 C22.6421356,11 26,14.3081182 26,18.3888889 C26,19.9956569 25.4794228,21.4826389 24.5953673,22.6950634 Z M18.5,24.3703704 C21.8531574,24.3703704 24.5714286,21.6923699 24.5714286,18.3888889 C24.5714286,15.0854079 21.8531574,12.4074074 18.5,12.4074074 C15.1468426,12.4074074 12.4285714,15.0854079 12.4285714,18.3888889 C12.4285714,21.6923699 15.1468426,24.3703704 18.5,24.3703704 Z" id="Shape" fill="#FFFFFF"></path>
        </g>
    </g>
</svg>