<svg width="300" height="300" viewBox="0 0 300 300" fill="none" xmlns="http://www.w3.org/2000/svg">
<path d="M113.582 20.2759C85.3625 22.6558 60.8805 35.0964 43.5482 55.8668C26.7033 75.9882 18.5788 100.923 20.2037 127.265C23.0744 171.997 55.6808 209.481 99.77 218.731C121.869 223.328 143.751 220.624 164.225 210.779C170.128 207.913 177.982 203.099 182.803 199.312L184.319 198.177L194.015 207.859L203.764 217.595L203.168 219.758C202.843 220.948 202.681 223.977 202.789 226.52C202.952 230.306 203.331 231.82 204.739 234.903C206.418 238.419 207.935 240.096 225.321 257.405C245.795 277.851 246.607 278.446 253.811 279.69C268.706 282.232 282.193 268.763 279.701 253.781C278.51 246.587 277.914 245.829 257.44 225.33C240.108 207.967 238.429 206.398 234.908 204.775C231.821 203.369 230.304 202.991 226.513 202.828C223.967 202.72 220.934 202.882 219.742 203.207L217.576 203.802L207.826 194.066L198.131 184.384L199.268 182.869C208.585 171.024 216.113 154.689 218.93 140.193C221.53 126.562 221.53 114.446 218.93 100.815C213.893 74.7441 197.373 50.566 174.732 35.9619C157.183 24.6571 133.514 18.5991 113.582 20.2759ZM136.98 40.9381C144.401 42.5608 149.709 44.4539 156.913 48.0238C184.211 61.5462 201.597 89.6187 201.597 120.342C201.597 128.455 200.948 133.594 198.835 141.491C190.44 173.295 163.412 196.824 130.372 201.151C123.602 202.017 110.115 201.476 103.832 200.016C66.676 191.578 41.0025 161.45 39.2693 124.29C37.861 93.6755 53.406 65.3866 80.0003 50.0251C87.7457 45.5357 98.5242 41.6953 107.895 40.1808C114.557 39.045 130.372 39.4777 136.98 40.9381Z" fill="white"/>
<path d="M77.8337 73.3379C73.5006 75.3392 65.6469 85.7244 61.8012 94.541C60.6097 97.1914 58.9847 101.735 58.2265 104.656C56.8724 109.524 56.764 110.822 56.764 120.504C56.764 130.132 56.8724 131.484 58.1723 136.19C60.9346 146.413 66.0802 156.041 72.7423 163.451C77.292 168.481 81.4085 169.78 86.0665 167.508C88.7747 166.21 90.183 164.425 91.0496 161.179C92.0245 157.664 91.1037 155.338 86.7165 150.145C82.3292 145.007 78.1045 137.001 76.6421 131.051C75.3963 125.913 75.3963 115.095 76.6421 109.957C77.9962 104.439 82.3292 96.0014 86.0665 91.6201C90.5621 86.3734 91.2121 85.1294 91.2662 82.2086C91.3746 75.0687 84.1708 70.3629 77.8337 73.3379Z" fill="white"/>
</svg>
